<svg width="393" height="88" viewBox="0 0 393 88" fill="none" xmlns="http://www.w3.org/2000/svg">
<g clip-path="url(#clip0_4125_7883)">
<path d="M16.4573 67.0872V14.621H0V2.31421H46.5354V14.621H30.1722V67.0872H16.4573Z" fill="#E8FF45"/>
<path d="M82.6657 68.197C76.4229 68.197 70.6377 66.7784 65.309 63.9403C59.9804 61.1043 55.7392 57.1392 52.5877 52.0503C49.434 46.9603 47.8582 41.1765 47.8582 34.7001C47.8582 28.2225 49.434 22.4398 52.5877 17.3498C55.7392 12.2609 59.9804 8.29685 65.309 5.45977C70.6377 2.6227 76.4229 1.20312 82.6657 1.20312C88.0885 1.20312 93.0705 2.14399 97.6107 4.02573C102.151 5.90746 106.029 8.57601 109.245 12.0293C112.461 15.4857 114.792 19.4942 116.244 24.059H101.867C99.8481 20.8528 97.3106 18.2907 94.252 16.379C91.1935 14.4662 87.3318 13.5109 82.6657 13.5109C78.8188 13.5109 75.3026 14.4352 72.1194 16.2859C68.9351 18.1367 66.4113 20.6667 64.5523 23.8739C62.6922 27.0821 61.7622 30.6905 61.7622 34.7001C61.7622 38.7106 62.6922 42.3345 64.5523 45.5728C66.4113 48.812 68.9509 51.342 72.167 53.1607C75.383 54.9814 78.9129 55.8902 82.7598 55.8902C86.5444 55.8902 89.9168 55.2285 92.8813 53.901C95.8437 52.5745 98.2089 50.6938 99.9749 48.2568C101.74 45.8199 102.813 42.9363 103.191 39.6039L106.501 43.3064H81.1523V31.1837H117.001V34.8851C117.001 41.3616 115.549 47.1154 112.65 52.1423C109.749 57.1713 105.713 61.1043 100.542 63.9403C95.3713 66.7784 89.4127 68.197 82.6657 68.197Z" fill="#E8FF45"/>
<path d="M158.055 68.197C151.685 68.197 145.82 66.7629 140.461 63.8938C135.101 61.0257 130.845 57.0472 127.692 51.9572C124.539 46.8683 122.963 41.1166 122.963 34.7001C122.963 28.2846 124.539 22.5319 127.692 17.4429C130.845 12.3529 135.101 8.37439 140.461 5.50526C145.82 2.63821 151.685 1.20312 158.055 1.20312C164.422 1.20312 170.287 2.63821 175.647 5.50526C181.006 8.37439 185.262 12.3529 188.416 17.4429C191.569 22.5319 193.145 28.2846 193.145 34.7001C193.145 41.1166 191.569 46.8683 188.416 51.9572C185.262 57.0472 181.006 61.0257 175.647 63.8938C170.287 66.7629 164.422 68.197 158.055 68.197Z" fill="#E8FF45"/>
<path d="M215.18 0.461914H202.222V67.0856H215.18V0.461914Z" fill="#E8FF45"/>
<path d="M226.539 19.8947H239.497V67.0859H226.539V19.8947ZM226.065 0H239.78V11.1963H226.065V0Z" fill="#E8FF45"/>
<path d="M272.875 54.873C275.334 54.873 277.541 54.3333 279.496 53.2539C281.45 52.1745 282.98 50.6939 284.083 48.8122C285.186 46.9305 285.738 44.7861 285.738 42.3812C285.738 40.0993 285.186 37.985 284.083 36.0422C282.98 34.0985 281.45 32.5879 279.496 31.5085C277.541 30.4291 275.334 29.8884 272.875 29.8884C270.352 29.8884 268.113 30.4291 266.16 31.5085C264.203 32.5879 262.691 34.0985 261.619 36.0422C260.546 37.985 260.011 40.0993 260.011 42.3812C260.011 44.7861 260.546 46.9305 261.619 48.8122C262.691 50.6939 264.203 52.1745 266.16 53.2539C268.113 54.3333 270.352 54.873 272.875 54.873ZM272.875 87.9998C268.335 87.9998 264.362 87.2275 260.957 85.6859C257.552 84.1433 254.793 82.0155 252.681 79.3014C250.568 76.5864 249.101 73.5022 248.282 70.0489H261.524C262.218 71.4044 263.069 72.5303 264.079 73.4257C265.086 74.32 266.301 75.0448 267.72 75.6011C269.139 76.1552 270.856 76.4334 272.875 76.4334C275.523 76.4334 277.777 75.9081 279.638 74.8597C281.497 73.8093 282.9 72.3618 283.847 70.5111C284.793 68.6593 285.266 66.5946 285.266 64.3117V56.3536L286.874 58.8516C285.297 61.0724 283.104 62.8301 280.3 64.1256C277.493 65.4221 274.23 66.0693 270.51 66.0693C266.474 66.0693 262.674 65.0975 259.113 63.1537C255.549 61.211 252.649 58.4349 250.41 54.8265C248.172 51.2171 247.053 47.069 247.053 42.3812C247.053 37.6934 248.155 33.5598 250.363 29.9814C252.57 26.4051 255.455 23.6424 259.017 21.6997C262.58 19.757 266.38 18.7841 270.416 18.7841C273.064 18.7841 275.412 19.0777 277.463 19.6639C279.511 20.2502 281.388 21.1445 283.089 22.3469C284.793 23.5504 286.337 25.0775 287.725 26.9282L285.833 28.963V19.8955H298.224V62.8301C298.224 67.5799 297.292 71.8531 295.433 75.6465C293.572 79.44 290.735 82.4477 286.921 84.6685C283.104 86.8883 278.423 87.9998 272.875 87.9998Z" fill="#E8FF45"/>
<path d="M309.479 67.087V0.463257H322.437V28.315L319.979 26.9275C321.364 25.0778 322.91 23.5662 324.613 22.3937C326.316 21.2233 328.127 20.328 330.052 19.7107C331.974 19.0945 334.039 18.7843 336.247 18.7843C340.03 18.7843 343.403 19.6642 346.367 21.4218C349.331 23.1795 351.648 25.602 353.319 28.6851C354.99 31.7714 355.826 35.2247 355.826 39.0491V67.087H342.868V41.4551C342.868 39.2342 342.49 37.2915 341.733 35.6258C340.976 33.9602 339.841 32.6812 338.328 31.7859C336.814 30.8915 335.018 30.4449 332.936 30.4449C330.981 30.4449 329.184 30.907 327.545 31.8324C325.905 32.7577 324.644 34.0522 323.761 35.7178C322.878 37.3845 322.437 39.2973 322.437 41.4551V67.087H309.479Z" fill="#E8FF45"/>
<path d="M385.625 67.0872C382.093 67.0872 379.034 66.4089 376.45 65.0514C373.864 63.6949 371.91 61.7821 370.586 59.3142C369.261 56.8472 368.599 53.9171 368.599 50.5238V7.31006H381.558V48.1178C381.558 50.4007 382.219 52.1884 383.544 53.4849C384.868 54.7804 386.696 55.4277 389.03 55.4277H393.003V67.0872H385.625ZM360.654 19.8949H393.003V31.5544H360.654V19.8949Z" fill="#E8FF45"/>
</g>
<defs>
<clipPath id="clip0_4125_7883">
<rect width="393" height="88" fill="white"/>
</clipPath>
</defs>
</svg>
